<svg width="24" height="24" viewBox="0 0 24 24" fill="none" xmlns="http://www.w3.org/2000/svg">
<path d="M17.5 8.56546C17.0954 8.74609 16.6602 8.86826 16.2037 8.92282C16.6698 8.64171 17.0274 8.19692 17.1962 7.66605C16.7601 7.92649 16.2769 8.11542 15.7631 8.21725C15.3514 7.77585 14.7649 7.5 14.1154 7.5C12.8693 7.5 11.8586 8.51751 11.8586 9.77207C11.8586 9.95016 11.8787 10.1235 11.9174 10.2899C10.0418 10.1952 8.37878 9.29068 7.26561 7.91565C7.07139 8.25114 6.95997 8.64171 6.95997 9.05803C6.95997 9.84612 7.35869 10.5419 7.96391 10.9492C7.59414 10.9375 7.24592 10.8353 6.9418 10.6647C6.94163 10.6744 6.94163 10.684 6.94163 10.6935C6.94163 11.7944 7.71987 12.7126 8.75207 12.9212C8.5629 12.9734 8.36312 13.001 8.15762 13.001C8.01187 13.001 7.87067 12.9869 7.73299 12.9605C8.02012 13.8629 8.85339 14.5199 9.84117 14.5384C9.06865 15.1478 8.09569 15.511 7.03807 15.511C6.8563 15.511 6.67621 15.5003 6.5 15.4791C7.49821 16.124 8.68475 16.5 9.95915 16.5C14.1102 16.5 16.3803 13.0379 16.3803 10.0352C16.3803 9.93677 16.3781 9.83866 16.3737 9.7414C16.815 9.42115 17.1976 9.0211 17.5 8.56546Z" fill="white"/>
</svg>
