<svg width="24" height="24" viewBox="0 0 24 24" fill="none" xmlns="http://www.w3.org/2000/svg">
<path d="M14.6695 6.50227L13.2584 6.5C11.6731 6.5 10.6485 7.55294 10.6485 9.18264V10.4195H9.2297C9.1071 10.4195 9.00781 10.5191 9.00781 10.6419V12.434C9.00781 12.5568 9.10721 12.6563 9.2297 12.6563H10.6485V17.1783C10.6485 17.3011 10.7478 17.4005 10.8704 17.4005H12.7216C12.8442 17.4005 12.9435 17.301 12.9435 17.1783V12.6563H14.6024C14.725 12.6563 14.8243 12.5568 14.8243 12.434L14.825 10.6419C14.825 10.5829 14.8015 10.5265 14.76 10.4847C14.7185 10.443 14.6618 10.4195 14.603 10.4195H12.9435V9.371C12.9435 8.86704 13.0634 8.61121 13.7187 8.61121L14.6693 8.61087C14.7918 8.61087 14.8911 8.5113 14.8911 8.3886V6.72454C14.8911 6.60195 14.7919 6.50249 14.6695 6.50227Z" fill="white"/>
</svg>
